<svg xmlns="http://www.w3.org/2000/svg" viewBox="0 0 101 101"><defs><style>.cls-1{fill:#feffff;}.cls-2{fill:#212121;stroke:#feffff;stroke-miterlimit:10;}</style></defs><g id="Layer_2" data-name="Layer 2"><g id="Layer_1-2" data-name="Layer 1"><rect class="cls-1" x="5.73" y="12.81" width="89.2" height="77.73"/><path class="cls-2" d="M34,81.75v-.08a.74.74,0,0,0-.26-.61,1.24,1.24,0,0,0-.77-.21,1.13,1.13,0,0,0-.84.26,1,1,0,0,0-.24.64Z"/><path class="cls-2" d="M88.12.5H12.88A12.38,12.38,0,0,0,.5,12.88V88.12A12.38,12.38,0,0,0,12.88,100.5H88.12A12.38,12.38,0,0,0,100.5,88.12V12.88A12.38,12.38,0,0,0,88.12.5ZM23,80h-2.5v1.22h2.41v.33H20.52v1.25H23v.33h-2.9V79.68H23Zm3.34,3.13H26V81.71a.8.8,0,0,0-.22-.61.93.93,0,0,0-.7-.22,1,1,0,0,0-.78.27,1.06,1.06,0,0,0-.26.76v1.24h-.41V80.59H24v.81h0a1,1,0,0,1,.2-.42,1,1,0,0,1,.39-.32,1.4,1.4,0,0,1,.6-.12,1.29,1.29,0,0,1,.66.15,1,1,0,0,1,.4.41,1.32,1.32,0,0,1,.13.56Zm3.48,0h-.37V82.4h0A1,1,0,0,1,29,83a1.34,1.34,0,0,1-.79.22,1.61,1.61,0,0,1-.76-.17,1.23,1.23,0,0,1-.48-.48,1.57,1.57,0,0,1,0-1.38,1.25,1.25,0,0,1,.47-.47,1.53,1.53,0,0,1,.74-.17,1.36,1.36,0,0,1,.81.22,1,1,0,0,1,.4.55h0V79.68h.41ZM28.4,77.27a5.28,5.28,0,0,1-.93-.08l-1-2.91-1.18,2.77a4.7,4.7,0,0,1-1.58.2l-1-.06-2.32-6.9-1-.43V69h4.4l.05.75-.91.47L24,73.49l.41,1.75h.14l1.1-3.11-1-2.85L27.09,69l1.51,4.45.33,1.75h.14l.82-5-1-.36,0-.89h4.18l0,.75a5.39,5.39,0,0,1-.88.45L30,77.05A5,5,0,0,1,28.4,77.27Zm2.52,5.88h-.4V79.68h.4Zm3.42-1.28a.43.43,0,0,0,0,.11H31.85a1,1,0,0,0,.24.66,1.17,1.17,0,0,0,.84.26,1.27,1.27,0,0,0,.73-.16.49.49,0,0,0,.24-.44v0h.4v0a.71.71,0,0,1-.17.48,1.15,1.15,0,0,1-.49.31,1.94,1.94,0,0,1-.7.12,1.8,1.8,0,0,1-.79-.17,1.2,1.2,0,0,1-.51-.46,1.36,1.36,0,0,1-.18-.71,1.31,1.31,0,0,1,.18-.69,1.29,1.29,0,0,1,.51-.47,1.73,1.73,0,0,1,.78-.17,1.83,1.83,0,0,1,.73.14,1.09,1.09,0,0,1,.68,1.06Zm2.87,1a.9.9,0,0,1-.45.25,2.11,2.11,0,0,1-.64.09,1.91,1.91,0,0,1-1-.23.76.76,0,0,1-.36-.68h.4v0a.49.49,0,0,0,.23.45,1.53,1.53,0,0,0,.74.13,1.3,1.3,0,0,0,.66-.11.37.37,0,0,0,0-.61,2,2,0,0,0-.5-.14L35.57,82a1.56,1.56,0,0,1-.61-.2.6.6,0,0,1-.07-.86,1,1,0,0,1,.43-.26,2.15,2.15,0,0,1,.66-.09,2.17,2.17,0,0,1,.71.1,1,1,0,0,1,.46.3.8.8,0,0,1,.17.51h-.41v0a.49.49,0,0,0-.37-.53,2.16,2.16,0,0,0-.57-.06,1.47,1.47,0,0,0-.64.1.35.35,0,0,0-.19.33.3.3,0,0,0,.13.28,1.2,1.2,0,0,0,.48.14l.69.09a1.76,1.76,0,0,1,.69.21.53.53,0,0,1,.24.47A.54.54,0,0,1,37.21,82.87Zm3,0a.9.9,0,0,1-.45.25,2.11,2.11,0,0,1-.64.09,1.91,1.91,0,0,1-1-.23.76.76,0,0,1-.36-.68h.4v0a.49.49,0,0,0,.23.45,1.53,1.53,0,0,0,.74.13,1.3,1.3,0,0,0,.66-.11.33.33,0,0,0,.19-.32.32.32,0,0,0-.15-.29,1.74,1.74,0,0,0-.49-.14L38.59,82a1.56,1.56,0,0,1-.61-.2.6.6,0,0,1-.07-.86,1,1,0,0,1,.43-.26,2.15,2.15,0,0,1,.66-.09,2.17,2.17,0,0,1,.71.1,1,1,0,0,1,.46.3.8.8,0,0,1,.17.51h-.41v0a.67.67,0,0,0-.08-.33.58.58,0,0,0-.29-.2,2.16,2.16,0,0,0-.57-.06,1.47,1.47,0,0,0-.64.1.35.35,0,0,0-.19.33.3.3,0,0,0,.13.28,1.2,1.2,0,0,0,.48.14l.69.09a1.76,1.76,0,0,1,.69.21.53.53,0,0,1,.24.47A.58.58,0,0,1,40.23,82.87Zm-.38-5.46A1.53,1.53,0,0,1,39,77a2.52,2.52,0,0,1-.71-.87l-1.87,1.19-.53,0a2.57,2.57,0,0,1-1.79-.63,2,2,0,0,1-.71-1.53,2.18,2.18,0,0,1,1.34-2L38,73.18V71.65c0-.92-.27-1.5-.81-1.75a4.64,4.64,0,0,0-1.29.22L35.6,72l-1.44,0A5.42,5.42,0,0,1,33.78,70l0-.35a13.82,13.82,0,0,1,2.27-.73,9.53,9.53,0,0,1,2-.32,2.48,2.48,0,0,1,1.24.35,2.94,2.94,0,0,1,1,.89,3,3,0,0,1,.21,1.31v4.13c0,.27.14.41.43.41l.84-.1.16.77Zm5,2.61h-2.5v1.22h2.41v.33H42.37v1.25h2.5v.33H42V79.68h2.9Zm2.54-3.73-.07.84H42.41l0-.58A8.91,8.91,0,0,1,43.67,76V66l-1.29-.13-.12-.83a8.86,8.86,0,0,1,3.06-.6l.84.76V75.78A6.34,6.34,0,0,1,47.41,76.29Zm.79,6.86h-.4V81.71a.8.8,0,0,0-.22-.61,1,1,0,0,0-.7-.22.94.94,0,0,0-1.05,1v1.24h-.4V80.59h.36v.81h0A1.16,1.16,0,0,1,46,81a1.07,1.07,0,0,1,.4-.32,1.34,1.34,0,0,1,.6-.12,1.29,1.29,0,0,1,.66.15,1,1,0,0,1,.39.41,1.18,1.18,0,0,1,.13.56Zm5-6.86-.07.84H48.15l0-.58A9.42,9.42,0,0,1,49.41,76V66l-1.29-.13L48,65.08a8.86,8.86,0,0,1,3.06-.6l.84.76V75.78A6.75,6.75,0,0,1,53.16,76.29Zm-2.57,4.62H49.47v1.45a.39.39,0,0,0,.15.36.81.81,0,0,0,.46.1h.51v.33H50a1.13,1.13,0,0,1-.67-.18.74.74,0,0,1-.25-.63V80.91h-.5v-.32h.5V80h.41v.61h1.12Zm3.18,1a.43.43,0,0,1,0,.11H51.29a1,1,0,0,0,.24.66,1.16,1.16,0,0,0,.84.26,1.3,1.3,0,0,0,.73-.16.49.49,0,0,0,.24-.44v0h.4v0a.76.76,0,0,1-.17.48,1.21,1.21,0,0,1-.49.31,2,2,0,0,1-.71.12,1.73,1.73,0,0,1-.78-.17,1.17,1.17,0,0,1-.52-.46,1.36,1.36,0,0,1-.18-.71,1.31,1.31,0,0,1,.18-.69,1.25,1.25,0,0,1,.52-.47,1.73,1.73,0,0,1,.78-.17,1.83,1.83,0,0,1,.73.14,1.09,1.09,0,0,1,.68,1.06A.57.57,0,0,1,53.77,81.87Zm2.87-.16h-.41v-.2a.66.66,0,0,0-.16-.49.94.94,0,0,0-1.15.08,1,1,0,0,0-.2.66v1.39h-.4V80.59h.36v.7h0a1.06,1.06,0,0,1,.16-.38.89.89,0,0,1,.33-.27,1.09,1.09,0,0,1,.5-.1.93.93,0,0,1,.53.13.84.84,0,0,1,.31.34,1.09,1.09,0,0,1,.1.44Zm2.19-.8H57.71v1.45a.39.39,0,0,0,.15.36.81.81,0,0,0,.46.1h.51v.33h-.61a1.13,1.13,0,0,1-.67-.18.72.72,0,0,1-.25-.63V80.91h-.5v-.32h.5V80h.41v.61h1.12Zm2.93,2.24H61.4v-.69h0a1,1,0,0,1-.47.55,1.75,1.75,0,0,1-.85.2,1.15,1.15,0,0,1-.67-.18.54.54,0,0,1-.26-.48.49.49,0,0,1,.12-.34.81.81,0,0,1,.32-.21,2.17,2.17,0,0,1,.47-.1l1.34-.13v-.2a.7.7,0,0,0-.19-.54,1.1,1.1,0,0,0-.66-.16,1.19,1.19,0,0,0-.69.16.53.53,0,0,0-.24.49v0h-.4v0a.78.78,0,0,1,.16-.49,1.06,1.06,0,0,1,.46-.36,1.77,1.77,0,0,1,.73-.13,1.55,1.55,0,0,1,.7.14.94.94,0,0,1,.4.36,1.07,1.07,0,0,1,.12.51ZM61,77a2.43,2.43,0,0,1-.7-1,9.43,9.43,0,0,1-2.94,1.43,2.61,2.61,0,0,1-1.13-.36,2.85,2.85,0,0,1-1-.86,3.49,3.49,0,0,1-.25-1.6V70.22l-1.29-.15-.12-.83a8.86,8.86,0,0,1,3.06-.6l.84.76v4.71c0,1,.37,1.49,1.1,1.49a3.39,3.39,0,0,0,1.48-.43v-5L59,70l-.12-.82a8.91,8.91,0,0,1,2.85-.57l.84.76v5.77c0,.31.15.47.43.47l.86-.1.16.77-2.12,1.1A1.53,1.53,0,0,1,61,77Zm1.85,6.18h-.4V80.59h.4Zm0-2.88h-.4v-.59h.4Zm3.46,2.88h-.41V81.71a.8.8,0,0,0-.22-.61.93.93,0,0,0-.7-.22.93.93,0,0,0-1,1v1.24h-.41V80.59h.37v.81h0a1.16,1.16,0,0,1,.2-.42,1.07,1.07,0,0,1,.4-.32,1.34,1.34,0,0,1,.6-.12,1.29,1.29,0,0,1,.66.15,1,1,0,0,1,.39.41,1.19,1.19,0,0,1,.14.56Zm-.67-12.77-1.17-.52,0-.89H68.6l.05.75-.47.26,1.23,1.67.77-1.58-.69-.21,0-.89h3.87l.05.75-1,.48-2.18,2.58,2.15,2.93a5.22,5.22,0,0,1,1.41.58l-.07.84H69.39l0-.58.7-.34-1.53-2-.86,1.7.88.41-.07.84H64.14l0-.58a6.36,6.36,0,0,1,1-.46L67.63,73Zm6.16,12.77h-.41V81.71a.9.9,0,0,0-.2-.63,1,1,0,0,0-.66-.2.89.89,0,0,0-.73.26,1.2,1.2,0,0,0-.22.77v1.24h-.4V81.71a.86.86,0,0,0-.21-.63.9.9,0,0,0-.65-.2.89.89,0,0,0-.73.26,1.14,1.14,0,0,0-.22.77v1.24H67V80.59h.36v.77h0a1.27,1.27,0,0,1,.17-.4.83.83,0,0,1,.36-.3,1.25,1.25,0,0,1,.58-.12,1.13,1.13,0,0,1,.61.15.93.93,0,0,1,.36.4,1,1,0,0,1,.1.3h0a1.15,1.15,0,0,1,.17-.41,1,1,0,0,1,.37-.32,1.25,1.25,0,0,1,.58-.12,1.19,1.19,0,0,1,.62.15.87.87,0,0,1,.37.39,1.21,1.21,0,0,1,.13.58Zm3.4-1.28a.43.43,0,0,0,0,.11H72.69a1,1,0,0,0,.24.66,1.16,1.16,0,0,0,.84.26,1.27,1.27,0,0,0,.73-.16.49.49,0,0,0,.24-.44v0h.4v0a.71.71,0,0,1-.17.48,1.15,1.15,0,0,1-.49.31,1.94,1.94,0,0,1-.7.12A1.77,1.77,0,0,1,73,83a1.14,1.14,0,0,1-.51-.46,1.36,1.36,0,0,1-.18-.71,1.31,1.31,0,0,1,.18-.69,1.23,1.23,0,0,1,.51-.47,1.73,1.73,0,0,1,.78-.17,1.83,1.83,0,0,1,.73.14,1.09,1.09,0,0,1,.68,1.06Zm3.31,1.28h-.4V81.71a.8.8,0,0,0-.22-.61,1,1,0,0,0-.7-.22.94.94,0,0,0-1,1v1.24h-.4V80.59h.36v.81h0a1.16,1.16,0,0,1,.2-.42,1.07,1.07,0,0,1,.4-.32,1.54,1.54,0,0,1,1.26,0,1,1,0,0,1,.39.41,1.18,1.18,0,0,1,.13.56Zm2.39-2.24H79.76v1.45a.39.39,0,0,0,.15.36.81.81,0,0,0,.46.1h.51v.33h-.61A1.13,1.13,0,0,1,79.6,83a.74.74,0,0,1-.25-.63V80.91h-.5v-.32h.5V80h.41v.61h1.12ZM77,75a2.53,2.53,0,0,0,1.84.7,5.1,5.1,0,0,0,2.2-.62l.36.92-2.7,1.39-.55,0A4.28,4.28,0,0,1,75,76.2a4.09,4.09,0,0,1-1.22-3A4.54,4.54,0,0,1,75,69.92a4,4,0,0,1,3-1.31,3.47,3.47,0,0,1,2.53,1,3.29,3.29,0,0,1,1,2.48l-1,1L76.18,73A2.89,2.89,0,0,0,77,75Zm2.81-36.65-8.7,15.07-1.81,3.14-1,1.82a5.22,5.22,0,0,1-.48.46l-.22.18a4.81,4.81,0,0,1-2.11.9H56.67l-.52-.9-8-13.89L41.61,56.38l-1.15,2-.27.27a4.85,4.85,0,0,1-2.85,1.24H29.21l-.66-1.14L17.8,40.12l-1-1.8h.16a3.39,3.39,0,0,1-.34-.31l-1-1.81A4.37,4.37,0,0,1,15.36,35a4.41,4.41,0,0,1,1.11-2.91L17.92,31l3.84-2.84h.84L26,34.07l2.46,4.25,5.94,10.3,5.69-9.85,7.64,5.63-3.51-6.08L42.28,35,39.4,30l-.94-1.63s0,0,0,0,0-.09,0-.14A4.37,4.37,0,0,1,38.25,27a4.45,4.45,0,0,1,.89-2.65h0l2-1.45h0l4.14-3.06,2.87,5,1.93,3.34L54,35l1.93,3.35L62,48.86l3.23-5.6,2.85-4.94H64.17a5.27,5.27,0,0,1-2.6-1.41L60.11,34.4l-2.9-5-.69-1.19H85.64Z"/><path class="cls-2" d="M35.88,75.11a.92.92,0,0,0,.36.75A5.45,5.45,0,0,0,38,75.43V74.19h-.43C36.44,74.18,35.88,74.49,35.88,75.11Z"/><path class="cls-2" d="M74.8,81.75v-.08a.72.72,0,0,0-.27-.61,1.19,1.19,0,0,0-.76-.21,1.11,1.11,0,0,0-.84.26,1,1,0,0,0-.24.64Z"/><path class="cls-2" d="M61.37,82l-1.21.12a1.48,1.48,0,0,0-.48.11.31.31,0,0,0-.15.29.33.33,0,0,0,.15.29.81.81,0,0,0,.46.1,2,2,0,0,0,.63-.09,1,1,0,0,0,.43-.3.76.76,0,0,0,.17-.5Z"/><path class="cls-2" d="M53.4,81.75v-.08a.72.72,0,0,0-.27-.61,1.22,1.22,0,0,0-.77-.21,1.1,1.1,0,0,0-.83.26,1,1,0,0,0-.24.64Z"/><path class="cls-2" d="M77.43,69.91a2.65,2.65,0,0,0-1.15,1.89l3-.15a2.18,2.18,0,0,0-.63-1.24A1.67,1.67,0,0,0,77.43,69.91Z"/><path class="cls-2" d="M29.43,81.87a.93.93,0,0,0-.29-.73,1.22,1.22,0,0,0-.82-.26,1.4,1.4,0,0,0-.56.1.76.76,0,0,0-.38.3,1.12,1.12,0,0,0-.14.59,1.2,1.2,0,0,0,.13.59.71.71,0,0,0,.39.31,1.42,1.42,0,0,0,.57.1,1.46,1.46,0,0,0,.58-.11.94.94,0,0,0,.38-.33.86.86,0,0,0,.14-.52Z"/></g></g></svg>