<svg xmlns="http://www.w3.org/2000/svg" viewBox="0 0 94.28 53.69"><defs><style>.cls-1{fill:#feffff;}</style></defs><g id="Layer_2" data-name="Layer 2"><g id="Layer_1-2" data-name="Layer 1"><path class="cls-1" d="M94.28,11.15l-7.85,13.6L74.75,45l-2.42,4.21-1.42,2.44a5.37,5.37,0,0,1-.64.62,3.5,3.5,0,0,1-.3.24,6.38,6.38,0,0,1-2.82,1.21H55.42l-.7-1.2L44,33.84,35.22,49l-1.54,2.67-.37.36a6.54,6.54,0,0,1-3.82,1.67H18.58l-.88-1.53-14.43-25L1.88,24.75h.2a4.47,4.47,0,0,1-.45-.42L.23,21.91A5.84,5.84,0,0,1,0,20.28a5.93,5.93,0,0,1,1.49-3.91L3.42,15l5.16-3.8H9.71l4.56,7.9,3.29,5.7,8,13.82,7.63-13.22,10.25,7.56-4.71-8.16-2.59-4.49-3.87-6.71L31,11.36l0,0a1.33,1.33,0,0,0,0-.19,5.74,5.74,0,0,1-.21-1.55A5.92,5.92,0,0,1,31.9,6.05h0L34.55,4.1h0L40.11,0,44,6.67l2.59,4.48,5.26,9.11,2.59,4.49,8.17,14.14,4.34-7.51,3.83-6.63H65.48A7.08,7.08,0,0,1,62,22.86l-2-3.37-3.89-6.75-.92-1.59Z"/></g></g></svg>