<svg xmlns="http://www.w3.org/2000/svg" viewBox="0 0 259.89 53.69"><defs><style>.cls-1{fill:#feffff;}</style></defs><g id="Layer_2" data-name="Layer 2"><g id="Layer_1-2" data-name="Layer 1"><path class="cls-1" d="M94.28,11.15l-7.85,13.6L74.75,45l-2.42,4.21-1.42,2.44a5.37,5.37,0,0,1-.64.62,3.5,3.5,0,0,1-.3.24,6.38,6.38,0,0,1-2.82,1.21H55.42l-.7-1.2L44,33.84,35.22,49l-1.54,2.67-.37.36a6.54,6.54,0,0,1-3.82,1.67H18.58l-.88-1.53-14.43-25L1.88,24.75h.2a4.47,4.47,0,0,1-.45-.42L.23,21.91A5.84,5.84,0,0,1,0,20.28a5.93,5.93,0,0,1,1.49-3.91L3.42,15l5.16-3.8H9.71l4.56,7.9,3.29,5.7,8,13.82,7.63-13.22,10.25,7.56-4.71-8.16-2.59-4.49-3.87-6.71L31,11.36l0,0a1.33,1.33,0,0,0,0-.19,5.74,5.74,0,0,1-.21-1.55A5.92,5.92,0,0,1,31.9,6.05h0L34.55,4.1h0L40.11,0,44,6.67l2.59,4.48,5.26,9.11,2.59,4.49,8.17,14.14,4.34-7.51,3.83-6.63H65.48A7.08,7.08,0,0,1,62,22.86l-2-3.37-3.89-6.75-.92-1.59Z"/><path class="cls-1" d="M106.91,50.19h-1V41.48h1Zm6.25-7.87h-6.92v-.84h6.92Zm-.21,3.9h-6.71v-.83H113Zm.21,4h-6.92v-.85h6.92Z"/><path class="cls-1" d="M115.59,50.19h-1V43.76h.91v2l.1.07Zm5.94,0h-1V46.57A2.12,2.12,0,0,0,120,45a2.47,2.47,0,0,0-1.77-.54,2.59,2.59,0,0,0-2,.67,2.67,2.67,0,0,0-.66,1.93h-.27v-1.3h.25a2.78,2.78,0,0,1,.5-1,2.71,2.71,0,0,1,1-.8,3.47,3.47,0,0,1,1.51-.31,3.21,3.21,0,0,1,1.66.39,2.47,2.47,0,0,1,1,1,3,3,0,0,1,.33,1.4Z"/><path class="cls-1" d="M126.23,50.32a4.06,4.06,0,0,1-1.92-.43,2.9,2.9,0,0,1-1.19-1.19,3.92,3.92,0,0,1,0-3.45,2.91,2.91,0,0,1,1.17-1.19,3.8,3.8,0,0,1,1.85-.43,3.46,3.46,0,0,1,2,.55,2.44,2.44,0,0,1,1,1.38h.34V47h-.27a2.27,2.27,0,0,0-.74-1.82,3,3,0,0,0-2-.65,3.88,3.88,0,0,0-1.42.24,1.82,1.82,0,0,0-1,.77,3.33,3.33,0,0,0,0,3,1.86,1.86,0,0,0,1,.78,4,4,0,0,0,1.44.24,3.41,3.41,0,0,0,1.45-.28,2.14,2.14,0,0,0,1-.82,2.35,2.35,0,0,0,.35-1.29h.27l0,1.21h-.28a2.5,2.5,0,0,1-1.06,1.49A3.49,3.49,0,0,1,126.23,50.32Zm4-.13h-.92V48.08l-.09-.17V41.48h1Z"/><path class="cls-1" d="M133,50.19h-1V41.48h1Z"/><path class="cls-1" d="M138,50.32a4.5,4.5,0,0,1-2-.41,3,3,0,0,1-1.29-1.17,3.38,3.38,0,0,1-.45-1.77,3.27,3.27,0,0,1,.45-1.72A3.13,3.13,0,0,1,136,44.06a4.36,4.36,0,0,1,2-.43,4.56,4.56,0,0,1,1.83.35,2.89,2.89,0,0,1,1.25,1,2.77,2.77,0,0,1,.46,1.63c0,.11,0,.22,0,.32s0,.19-.05.27h-6.54v-.57h5.92l-.3.34a2.28,2.28,0,0,0,0-.26,2.44,2.44,0,0,0,0-.27,1.82,1.82,0,0,0-.67-1.54A3.08,3.08,0,0,0,138,44.4a2.81,2.81,0,0,0-2.08.66,2.45,2.45,0,0,0-.64,1.8v.21a2.51,2.51,0,0,0,.64,1.82,2.84,2.84,0,0,0,2.1.66,3.27,3.27,0,0,0,1.83-.4,1.23,1.23,0,0,0,.59-1.1V48h1v.09a1.79,1.79,0,0,1-.44,1.19,3,3,0,0,1-1.23.79A5,5,0,0,1,138,50.32Z"/><path class="cls-1" d="M146,50.32a4.7,4.7,0,0,1-2.52-.58,1.88,1.88,0,0,1-.91-1.7v0h1v.08a1.18,1.18,0,0,0,.57,1.13,3.9,3.9,0,0,0,1.86.33,3.64,3.64,0,0,0,1.66-.27.88.88,0,0,0,.47-.81.76.76,0,0,0-.36-.72,3.91,3.91,0,0,0-1.25-.35l-1.89-.24a3.49,3.49,0,0,1-1.53-.5,1.31,1.31,0,0,1-.57-1.18,1.4,1.4,0,0,1,.38-1,2.38,2.38,0,0,1,1.08-.64,6.13,6.13,0,0,1,3.43,0,2.52,2.52,0,0,1,1.17.76,2,2,0,0,1,.41,1.27v0h-1v-.07a1.41,1.41,0,0,0-.22-.82,1.31,1.31,0,0,0-.73-.49,4.74,4.74,0,0,0-1.41-.17,3.73,3.73,0,0,0-1.61.26.88.88,0,0,0-.49.83.76.76,0,0,0,.34.71,3.39,3.39,0,0,0,1.2.35l1.73.22a4.11,4.11,0,0,1,1.73.53,1.3,1.3,0,0,1,.6,1.17,1.38,1.38,0,0,1-.41,1,2.5,2.5,0,0,1-1.11.63A5.68,5.68,0,0,1,146,50.32Z"/><path class="cls-1" d="M153.56,50.32a4.7,4.7,0,0,1-2.52-.58,1.88,1.88,0,0,1-.91-1.7v0h1v.08a1.18,1.18,0,0,0,.57,1.13,3.85,3.85,0,0,0,1.86.33,3.64,3.64,0,0,0,1.66-.27.88.88,0,0,0,.47-.81.75.75,0,0,0-.37-.72,3.83,3.83,0,0,0-1.25-.35l-1.88-.24a3.58,3.58,0,0,1-1.54-.5,1.32,1.32,0,0,1-.56-1.18,1.4,1.4,0,0,1,.38-1,2.38,2.38,0,0,1,1.08-.64,6.13,6.13,0,0,1,3.43,0,2.43,2.43,0,0,1,1.16.76,1.93,1.93,0,0,1,.42,1.27v0h-1v-.07a1.49,1.49,0,0,0-.21-.82,1.35,1.35,0,0,0-.73-.49,4.74,4.74,0,0,0-1.41-.17,3.73,3.73,0,0,0-1.61.26.87.87,0,0,0-.49.83.78.78,0,0,0,.33.71,3.54,3.54,0,0,0,1.21.35l1.73.22a4.11,4.11,0,0,1,1.73.53,1.3,1.3,0,0,1,.6,1.17,1.38,1.38,0,0,1-.41,1,2.5,2.5,0,0,1-1.11.63A5.78,5.78,0,0,1,153.56,50.32Z"/><path class="cls-1" d="M161.67,50.19h-1V41.48h1Zm6.25-7.87H161v-.84h6.93Zm-.22,3.9H161v-.83h6.71Zm.22,4H161v-.85h6.93Z"/><path class="cls-1" d="M170.35,50.19h-1V43.76h.92v2l.1.07Zm5.94,0h-1V46.57a2.08,2.08,0,0,0-.55-1.55,2.44,2.44,0,0,0-1.76-.54,2.62,2.62,0,0,0-2,.67,2.67,2.67,0,0,0-.65,1.93h-.28v-1.3h.26a2.63,2.63,0,0,1,.5-1,2.56,2.56,0,0,1,1-.8,3.41,3.41,0,0,1,1.51-.31A3.2,3.2,0,0,1,175,44a2.43,2.43,0,0,1,1,1,3,3,0,0,1,.33,1.4Z"/><path class="cls-1" d="M182.27,44.56h-5.09v-.8h5.09Zm0,5.63h-1.53a2.83,2.83,0,0,1-1.68-.46,1.85,1.85,0,0,1-.62-1.59V42.23h1v6a1,1,0,0,0,.37.91,2.26,2.26,0,0,0,1.14.23h1.29Z"/><path class="cls-1" d="M186.74,50.32a4.47,4.47,0,0,1-2-.41,3,3,0,0,1-1.3-1.17A3.38,3.38,0,0,1,183,47a3.27,3.27,0,0,1,.45-1.72,3.1,3.1,0,0,1,1.29-1.19,4.32,4.32,0,0,1,2-.43,4.57,4.57,0,0,1,1.84.35,3,3,0,0,1,1.25,1,2.84,2.84,0,0,1,.45,1.63,1.67,1.67,0,0,1,0,.32,2.16,2.16,0,0,1-.05.27h-6.54v-.57h5.93l-.3.34c0-.09,0-.17,0-.26s0-.18,0-.27a1.85,1.85,0,0,0-.67-1.54,3.08,3.08,0,0,0-1.93-.53,2.83,2.83,0,0,0-2.09.66,2.45,2.45,0,0,0-.64,1.8v.21a2.51,2.51,0,0,0,.64,1.82,2.84,2.84,0,0,0,2.1.66,3.33,3.33,0,0,0,1.84-.4,1.26,1.26,0,0,0,.59-1.1V48h1v.09a1.74,1.74,0,0,1-.44,1.19,2.94,2.94,0,0,1-1.22.79A5.11,5.11,0,0,1,186.74,50.32Z"/><path class="cls-1" d="M192.62,50.19h-1V43.76h.92v1.81l.1.07Zm0-3.49h-.29V45.52h.26a2.37,2.37,0,0,1,.41-1,2.11,2.11,0,0,1,.82-.68,2.78,2.78,0,0,1,1.25-.26,2.46,2.46,0,0,1,1.34.33,2,2,0,0,1,.76.84,2.52,2.52,0,0,1,.25,1.12v.64h-1v-.5a1.66,1.66,0,0,0-.4-1.22,1.8,1.8,0,0,0-1.32-.4,2,2,0,0,0-1.57.58A2.53,2.53,0,0,0,192.62,46.7Z"/><path class="cls-1" d="M202.91,44.56h-5.08v-.8h5.08Zm0,5.63h-1.52a2.79,2.79,0,0,1-1.68-.46,1.82,1.82,0,0,1-.62-1.59V42.23h1v6a1,1,0,0,0,.37.91,2.21,2.21,0,0,0,1.14.23h1.28Z"/><path class="cls-1" d="M206,50.32a3,3,0,0,1-1.68-.44,1.37,1.37,0,0,1-.64-1.2,1.24,1.24,0,0,1,.29-.87,1.82,1.82,0,0,1,.81-.51,5.32,5.32,0,0,1,1.17-.26l3.49-.35v.61l-3.18.33a3,3,0,0,0-1.18.27.73.73,0,0,0-.39.71.84.84,0,0,0,.37.74,2.12,2.12,0,0,0,1.17.25,4.73,4.73,0,0,0,1.56-.24,2.51,2.51,0,0,0,1.1-.73,1.94,1.94,0,0,0,.41-1.27l.2.07v1h-.2a2.51,2.51,0,0,1-1.18,1.37A4.34,4.34,0,0,1,206,50.32Zm4.29-.13h-.92V48.43l-.07,0V46.21a1.66,1.66,0,0,0-.48-1.34,2.64,2.64,0,0,0-1.66-.4,3.13,3.13,0,0,0-1.72.38,1.35,1.35,0,0,0-.59,1.24v0h-1v0a2.11,2.11,0,0,1,.4-1.24,2.71,2.71,0,0,1,1.16-.88,4.41,4.41,0,0,1,1.84-.34A4,4,0,0,1,209,44a2.26,2.26,0,0,1,1,.91,2.62,2.62,0,0,1,.32,1.29Z"/><path class="cls-1" d="M213,42.94h-1V41.48h1Zm0,7.25h-1V43.76h1Z"/><path class="cls-1" d="M215.66,50.19h-1V43.76h.91v2l.1.07Zm5.94,0h-1V46.57A2.08,2.08,0,0,0,220,45a2.46,2.46,0,0,0-1.76-.54,2.62,2.62,0,0,0-2,.67,2.67,2.67,0,0,0-.66,1.93h-.27v-1.3h.25a2.94,2.94,0,0,1,.5-1,2.67,2.67,0,0,1,1-.8,3.4,3.4,0,0,1,1.5-.31,3.21,3.21,0,0,1,1.66.39,2.35,2.35,0,0,1,1,1,3,3,0,0,1,.33,1.4Z"/><path class="cls-1" d="M224.27,50.19h-1V43.76h.91v2l.1.07Zm5.54,0h-1V46.57a2.18,2.18,0,0,0-.51-1.58,2.88,2.88,0,0,0-3.47.15,3,3,0,0,0-.55,1.94H224V45.7h.24a2.69,2.69,0,0,1,.41-1,2.26,2.26,0,0,1,.9-.76,3.19,3.19,0,0,1,1.46-.3,3,3,0,0,1,1.54.37,2.37,2.37,0,0,1,.9,1,3.27,3.27,0,0,1,.3,1.43h.07Zm5.56,0h-1V46.57a2.18,2.18,0,0,0-.51-1.58,2.88,2.88,0,0,0-3.47.15,2.92,2.92,0,0,0-.56,1.94h-.27l0-1.31h.25a2.8,2.8,0,0,1,.43-1,2.43,2.43,0,0,1,.91-.79,3.26,3.26,0,0,1,1.47-.31,3.06,3.06,0,0,1,1.55.37,2.34,2.34,0,0,1,.93,1,3.22,3.22,0,0,1,.32,1.45Z"/><path class="cls-1" d="M240.38,50.32a4.5,4.5,0,0,1-2-.41,3,3,0,0,1-1.29-1.17,3.38,3.38,0,0,1-.45-1.77,3.27,3.27,0,0,1,.45-1.72,3.07,3.07,0,0,1,1.28-1.19,4.32,4.32,0,0,1,2-.43,4.57,4.57,0,0,1,1.84.35,3,3,0,0,1,1.25,1,2.84,2.84,0,0,1,.45,1.63,1.67,1.67,0,0,1,0,.32,2.16,2.16,0,0,1,0,.27h-6.54v-.57h5.93l-.3.34a2.28,2.28,0,0,0,0-.26,2.44,2.44,0,0,0,0-.27,1.85,1.85,0,0,0-.67-1.54,3.08,3.08,0,0,0-1.93-.53,2.79,2.79,0,0,0-2.08.66,2.45,2.45,0,0,0-.65,1.8v.21a2.52,2.52,0,0,0,.65,1.82,2.8,2.8,0,0,0,2.09.66,3.33,3.33,0,0,0,1.84-.4,1.26,1.26,0,0,0,.59-1.1V48h1v.09a1.75,1.75,0,0,1-.45,1.19,2.94,2.94,0,0,1-1.22.79A5.07,5.07,0,0,1,240.38,50.32Z"/><path class="cls-1" d="M246.26,50.19h-1V43.76h.91v2l.1.07Zm5.94,0h-1V46.57a2.12,2.12,0,0,0-.55-1.55,2.47,2.47,0,0,0-1.77-.54,2.59,2.59,0,0,0-2,.67,2.67,2.67,0,0,0-.66,1.93H246l0-1.3h.26a2.78,2.78,0,0,1,.5-1,2.71,2.71,0,0,1,1-.8,3.47,3.47,0,0,1,1.51-.31,3.21,3.21,0,0,1,1.66.39,2.47,2.47,0,0,1,1,1,3,3,0,0,1,.33,1.4Z"/><path class="cls-1" d="M258.18,44.56H253.1v-.8h5.08Zm0,5.63h-1.53a2.78,2.78,0,0,1-1.67-.46,1.82,1.82,0,0,1-.62-1.59V42.23h1v6a1,1,0,0,0,.38.91,2.21,2.21,0,0,0,1.14.23h1.28Z"/><path class="cls-1" d="M138.58,16.52a13.32,13.32,0,0,1-2.2,1.12l-5.69,17.24a12.72,12.72,0,0,1-4,.56,12.23,12.23,0,0,1-2.33-.21l-2.54-7.29-3,6.94a11.67,11.67,0,0,1-4,.52l-2.41-.17L106.6,18l-2.41-1.08V14.63h11l.13,1.89-2.28,1.17L115.69,26l1,4.4h.34l2.76-7.8-2.5-7.16,6-.6L127.16,26l.82,4.4h.34l2.07-12.59-2.46-.9,0-2.24h10.47Z"/><path class="cls-1" d="M160.6,33l-5.26,2.76a3.77,3.77,0,0,1-2.15-.93,6.27,6.27,0,0,1-1.77-2.18l-4.7,3-1.33.08a6.43,6.43,0,0,1-4.48-1.59,5,5,0,0,1-1.77-3.84c0-2.07,1.12-3.7,3.36-4.91l8.23-.22V21.35c0-2.3-.67-3.76-2-4.4a13.22,13.22,0,0,0-3.24.56l-.77,4.66-3.62.13a14,14,0,0,1-1-5.22l0-.86a34.4,34.4,0,0,1,5.69-1.83,23.7,23.7,0,0,1,5-.8,6.34,6.34,0,0,1,3.13.86,7.46,7.46,0,0,1,2.48,2.25A7.82,7.82,0,0,1,157,20V30.31a.94.94,0,0,0,1.08,1l2.11-.26Zm-14.31-1.12a14.19,14.19,0,0,0,4.44-1.08v-3.1l-1.08-.05q-4.26,0-4.26,2.33A2.34,2.34,0,0,0,146.29,31.91Z"/><path class="cls-1" d="M171.16,31.69A15.68,15.68,0,0,1,174.3,33l-.17,2.11H161.76l-.13-1.47a20.53,20.53,0,0,1,3.28-1.42V7.3L161.68,7l-.31-2.07a22.71,22.71,0,0,1,7.68-1.51l2.11,1.9Z"/><path class="cls-1" d="M185.55,31.69A16.06,16.06,0,0,1,188.7,33l-.17,2.11H176.16L176,33.63a20,20,0,0,1,3.27-1.42V7.3L176.07,7l-.3-2.07a22.65,22.65,0,0,1,7.67-1.51l2.11,1.9Z"/><path class="cls-1" d="M215.89,33l-5.3,2.76a3.82,3.82,0,0,1-2.28-1.1,6.31,6.31,0,0,1-1.77-2.48,23.28,23.28,0,0,1-7.37,3.58A7.4,7.4,0,0,1,194,32.73c-.41-.61-.62-1.94-.65-4V17.77l-3.23-.38-.3-2.07a22.6,22.6,0,0,1,7.67-1.51l2.11,1.89V27.51q0,3.75,2.76,3.75a8.59,8.59,0,0,0,3.7-1.08V17.73l-2.71-.43-.3-2.07a22.06,22.06,0,0,1,7.15-1.42l2.11,1.89V30.18q0,1.17,1.08,1.17l2.15-.26Z"/><path class="cls-1" d="M236.88,31.52A13.4,13.4,0,0,1,240.41,33l-.17,2.11H229.38l-.13-1.47,1.77-.86-3.84-5.09L225,32l2.19,1-.17,2.11H216.23l-.12-1.47a16.54,16.54,0,0,1,2.54-1.16L225,24.8l-5-6.64L217,16.87l0-2.24H227.4l.13,1.89-1.17.65,3.06,4.18,1.94-4-1.72-.52,0-2.24h9.7l.13,1.89L237,17.73l-5.47,6.46Z"/><path class="cls-1" d="M257.39,24.84l-11-.13a7.24,7.24,0,0,0,2,5A6.33,6.33,0,0,0,253,31.43a12.94,12.94,0,0,0,5.52-1.55l.91,2.29-6.77,3.49-1.38.08a10.67,10.67,0,0,1-7.8-3,10.19,10.19,0,0,1-3.06-7.61,11.45,11.45,0,0,1,3.1-8.12,10,10,0,0,1,7.55-3.3,8.78,8.78,0,0,1,6.35,2.39,8.29,8.29,0,0,1,2.48,6.23ZM249.55,17q-2.25,1.29-2.89,4.74l7.46-.39a5.48,5.48,0,0,0-1.58-3.1A4.1,4.1,0,0,0,249.55,17Z"/></g></g></svg>