<svg xmlns="http://www.w3.org/2000/svg" viewBox="0 0 156.2 32.91"><defs><style>.cls-1{fill:#feffff;}.cls-2{fill:none;stroke:#feffff;stroke-miterlimit:10;}</style></defs><g id="Layer_2" data-name="Layer 2"><g id="Layer_1-2" data-name="Layer 1"><path class="cls-1" d="M34.39,13.14a13.32,13.32,0,0,1-2.2,1.12L26.5,31.5a12.44,12.44,0,0,1-4.05.56,12.05,12.05,0,0,1-2.32-.21l-2.55-7.29-3,6.94a11.67,11.67,0,0,1-4,.52l-2.41-.17L2.41,14.57,0,13.49V11.25H11l.13,1.89L8.88,14.31l2.63,8.27,1,4.4h.35l2.75-7.8L13.14,12l6-.6L23,22.58l.82,4.4h.34L26.2,14.39l-2.45-.9,0-2.24H34.26Z"/><path class="cls-1" d="M56.41,29.65l-5.26,2.76A3.8,3.8,0,0,1,49,31.48a6.27,6.27,0,0,1-1.77-2.18l-4.7,3-1.33.08a6.43,6.43,0,0,1-4.48-1.59A5,5,0,0,1,35,26.93q0-3.09,3.36-4.91l8.23-.21V18q0-3.45-2-4.39a12.89,12.89,0,0,0-3.24.55l-.77,4.66-3.62.13a14,14,0,0,1-1-5.22l0-.86A34.4,34.4,0,0,1,41.67,11a23.79,23.79,0,0,1,5-.8,6.25,6.25,0,0,1,3.13.87,7.24,7.24,0,0,1,2.48,2.24,7.65,7.65,0,0,1,.51,3.27V26.93a.94.94,0,0,0,1.08,1L56,27.71ZM42.1,28.53a14.19,14.19,0,0,0,4.44-1.08v-3.1l-1.07,0q-4.28,0-4.27,2.32A2.34,2.34,0,0,0,42.1,28.53Z"/><path class="cls-1" d="M67,28.31a16.06,16.06,0,0,1,3.15,1.3l-.18,2.11H57.57l-.12-1.47a20,20,0,0,1,3.27-1.42V3.92l-3.23-.34-.3-2.07A22.6,22.6,0,0,1,64.86,0L67,1.9Z"/><path class="cls-1" d="M81.36,28.31a16.06,16.06,0,0,1,3.15,1.3l-.17,2.11H72l-.13-1.47a20,20,0,0,1,3.27-1.42V3.92l-3.23-.34-.3-2.07A22.65,22.65,0,0,1,79.25,0l2.11,1.9Z"/><path class="cls-2" d="M111.7,29.65l-5.3,2.76a3.82,3.82,0,0,1-2.28-1.1,6.31,6.31,0,0,1-1.77-2.48A23.28,23.28,0,0,1,95,32.41a7.4,7.4,0,0,1-5.21-3.06c-.41-.61-.62-1.94-.65-4V14.39L85.89,14l-.3-2.07a22.6,22.6,0,0,1,7.67-1.51l2.11,1.9v11.8q0,3.75,2.76,3.75a8.55,8.55,0,0,0,3.7-1.08V14.35l-2.71-.43-.3-2.07A22.06,22.06,0,0,1,106,10.43l2.11,1.9V26.8q0,1.17,1.08,1.17l2.15-.26Z"/><path class="cls-2" d="M132.69,28.14a13.75,13.75,0,0,1,3.53,1.47l-.17,2.11H125.19l-.13-1.47,1.77-.86L123,24.31l-2.15,4.26,2.2,1-.18,2.11H112.05l-.13-1.47a17,17,0,0,1,2.54-1.16l6.33-7.67-5-6.64-2.93-1.29.05-2.24h10.34l.13,1.89-1.17.65L125.23,18l1.94-4-1.72-.52,0-2.24h9.7l.13,1.89-2.55,1.21-5.47,6.46Z"/><path class="cls-2" d="M153.2,21.46l-11-.13a7.2,7.2,0,0,0,2,5,6.3,6.3,0,0,0,4.61,1.76,12.91,12.91,0,0,0,5.51-1.55l.91,2.29-6.77,3.49-1.38.08a10.67,10.67,0,0,1-7.8-3,10.19,10.19,0,0,1-3.06-7.61,11.41,11.41,0,0,1,3.11-8.12,10,10,0,0,1,7.54-3.3,8.78,8.78,0,0,1,6.35,2.39A8.26,8.26,0,0,1,155.7,19Zm-7.84-7.84q-2.25,1.29-2.89,4.74l7.46-.39a5.45,5.45,0,0,0-1.58-3.1A4.12,4.12,0,0,0,145.36,13.62Z"/></g></g></svg>